# xmcd
#
# Track frame offsets:
#  150
#  11411
#  23504
#  40392
#  51476
#  68303
#  80144
#  91306
#  103796
#  114743
#  126971
#  137496
#  150007
#  164665
#  178099
#  193724
#
# Disc length: 2694 seconds
#
# Revision: 0
# Processed by: cddbd v1.4PL0 Copyright (c) Steve Scherf et al.
# Submitted via: AltoMP3_Maker 3.0
#
DISCID=ce0a8410
DTITLE=TO NEO KYMA - TO NEO KYMA CD1
DYEAR=1900
DGENRE=
TTITLE0=MIA FORA THIMAMAI
TTITLE1=XARTINO TO FEGARAKI
TTITLE2=POY NA XWRESEI T ONEIRO
TTITLE3=MAYROMALOYSA KOPELIA
TTITLE4=MATIA MOY SKALISTA
TTITLE5=NA DIWXW TA SYNNEFA
TTITLE6=TO THALASSINA TRIFYLLI
TTITLE7=GYTONAKI MOY
TTITLE8=TA MIKRA PAIDIA
TTITLE9=H KATERINA
TTITLE10=AN THYMHTHEIS T ONEIRO MOY
TTITLE11=THYMISOY TON SEPTEMBRH
TTITLE12=STAMATHSE TOY ROLOGIOY TOYS DEIKTES
TTITLE13=KI AN S AGAPW DEN S ORIZW
TTITLE14=TA DEKAOKTW KARABIA
TTITLE15=TO ROLOI
EXTD=
EXTT0=
EXTT1=
EXTT2=
EXTT3=
EXTT4=
EXTT5=
EXTT6=
EXTT7=
EXTT8=
EXTT9=
EXTT10=
EXTT11=
EXTT12=
EXTT13=
EXTT14=
EXTT15=
PLAYORDER=
